<mxfile host="app.diagrams.net" modified="2023-04-09T08:31:58.229Z" agent="5.0 (X11)" etag="7PdzL-SeqHBFiauXiynz" version="20.8.20" type="github">
  <diagram name="Page-1" id="HXeYJLalNvyhH986SFX0">
    <mxGraphModel dx="1674" dy="790" grid="1" gridSize="10" guides="1" tooltips="1" connect="1" arrows="1" fold="1" page="1" pageScale="1" pageWidth="3300" pageHeight="4681" math="0" shadow="0">
      <root>
        <mxCell id="0" />
        <mxCell id="1" parent="0" />
        <mxCell id="ngI1Ak43d4PhsUHfhxez-3" value="" style="edgeStyle=orthogonalEdgeStyle;rounded=0;orthogonalLoop=1;jettySize=auto;html=1;" edge="1" parent="1" source="ngI1Ak43d4PhsUHfhxez-1" target="ngI1Ak43d4PhsUHfhxez-2">
          <mxGeometry relative="1" as="geometry" />
        </mxCell>
        <mxCell id="ngI1Ak43d4PhsUHfhxez-1" value="LOAD X" style="rounded=0;whiteSpace=wrap;html=1;" vertex="1" parent="1">
          <mxGeometry x="430" y="220" width="120" height="60" as="geometry" />
        </mxCell>
        <mxCell id="ngI1Ak43d4PhsUHfhxez-5" value="" style="edgeStyle=orthogonalEdgeStyle;rounded=0;orthogonalLoop=1;jettySize=auto;html=1;" edge="1" parent="1" source="ngI1Ak43d4PhsUHfhxez-2" target="ngI1Ak43d4PhsUHfhxez-4">
          <mxGeometry relative="1" as="geometry" />
        </mxCell>
        <mxCell id="ngI1Ak43d4PhsUHfhxez-2" value="ADD X, X, 1" style="rounded=0;whiteSpace=wrap;html=1;" vertex="1" parent="1">
          <mxGeometry x="430" y="360" width="120" height="60" as="geometry" />
        </mxCell>
        <mxCell id="ngI1Ak43d4PhsUHfhxez-4" value="STORE X" style="rounded=0;whiteSpace=wrap;html=1;" vertex="1" parent="1">
          <mxGeometry x="430" y="500" width="120" height="60" as="geometry" />
        </mxCell>
        <mxCell id="ngI1Ak43d4PhsUHfhxez-6" value="" style="edgeStyle=orthogonalEdgeStyle;rounded=0;orthogonalLoop=1;jettySize=auto;html=1;" edge="1" parent="1" source="ngI1Ak43d4PhsUHfhxez-7" target="ngI1Ak43d4PhsUHfhxez-9">
          <mxGeometry relative="1" as="geometry" />
        </mxCell>
        <mxCell id="ngI1Ak43d4PhsUHfhxez-7" value="LOAD X" style="rounded=0;whiteSpace=wrap;html=1;" vertex="1" parent="1">
          <mxGeometry x="600" y="290" width="120" height="60" as="geometry" />
        </mxCell>
        <mxCell id="ngI1Ak43d4PhsUHfhxez-8" value="" style="edgeStyle=orthogonalEdgeStyle;rounded=0;orthogonalLoop=1;jettySize=auto;html=1;" edge="1" parent="1" source="ngI1Ak43d4PhsUHfhxez-9" target="ngI1Ak43d4PhsUHfhxez-10">
          <mxGeometry relative="1" as="geometry" />
        </mxCell>
        <mxCell id="ngI1Ak43d4PhsUHfhxez-9" value="ADD X, X, 1" style="rounded=0;whiteSpace=wrap;html=1;" vertex="1" parent="1">
          <mxGeometry x="600" y="430" width="120" height="60" as="geometry" />
        </mxCell>
        <mxCell id="ngI1Ak43d4PhsUHfhxez-10" value="STORE X" style="rounded=0;whiteSpace=wrap;html=1;" vertex="1" parent="1">
          <mxGeometry x="600" y="570" width="120" height="60" as="geometry" />
        </mxCell>
      </root>
    </mxGraphModel>
  </diagram>
</mxfile>
